<svg width="39" height="39" viewBox="0 0 39 39" fill="none" xmlns="http://www.w3.org/2000/svg">
<rect width="39" height="39" rx="19.5" fill="#424242"/>
<path d="M18.4379 9.43133C16.0534 9.43533 13.7678 10.3843 12.0817 12.0704C10.3956 13.7565 9.44662 16.0421 9.44263 18.4266C9.44462 20.8131 10.3925 23.1015 12.0786 24.7904C13.7646 26.4793 16.0514 27.431 18.4379 27.437C20.5544 27.437 22.5047 26.6924 24.0467 25.4603L27.7922 29.2058C27.982 29.3822 28.2327 29.4783 28.4918 29.4737C28.7508 29.4692 28.9981 29.3645 29.1815 29.1815C29.365 28.9985 29.4704 28.7516 29.4756 28.4925C29.4808 28.2335 29.3855 27.9825 29.2096 27.7923L25.464 24.043C26.7433 22.452 27.4407 20.4718 27.4407 18.4304C27.4407 13.4716 23.3966 9.43133 18.4379 9.43133ZM18.4379 11.4345C22.3157 11.4345 25.4376 14.5526 25.4376 18.4266C25.4376 22.3006 22.3157 25.4376 18.4379 25.4376C14.5601 25.4376 11.442 22.312 11.442 18.4342C11.442 14.5564 14.5601 11.4345 18.4379 11.4345Z" fill="white"/>
</svg>
